{"title":"Bright 2017 1080p WEBRip 6CH AAC x264 - EiE","magnet":"magnet:?xt=urn:btih:b905f198170f315491e642b6b22bdf22c6a1a106&dn=Bright+2017+1080p+WEBRip+6CH+AAC+x264+-+EiE&tr=udp%3A%2F%2Ftracker.leechers-paradise.org%3A6969&tr=udp%3A%2F%2Fzer0day.ch%3A1337&tr=udp%3A%2F%2Fopen.demonii.com%3A1337&tr=udp%3A%2F%2Ftracker.coppersurfer.tk%3A6969&tr=udp%3A%2F%2Fexodus.desync.com%3A6969","uploader":"samcode4u","categoryP":"video","categoryS":"hd___movies","size":"2039066062","seeders":"58","leechers":"60","description":"Bright 2017 1080p HD WEBRip 6CH AAC x264 - EiE\r\n <a href=\"\nhttps://www.imdb.com/title/tt5519340/\" rel=\"nofollow\" target=\"_NEW\">\nhttps://www.imdb.com/title/tt5519340/</a>\r\n\r\n\r\nScreenshots:\r\n\r\n <a href=\"\nhttps://lensdump.com/i/791Dc\" rel=\"nofollow\" target=\"_NEW\">\nhttps://lensdump.com/i/791Dc</a>\r\n <a href=\"\nhttps://lensdump.com/i/79TWK\" rel=\"nofollow\" target=\"_NEW\">\nhttps://lensdump.com/i/79TWK</a>\r\n <a href=\"\nhttps://lensdump.com/i/79E9Z\" rel=\"nofollow\" target=\"_NEW\">\nhttps://lensdump.com/i/79E9Z</a>\r\n <a href=\"\nhttps://lensdump.com/i/79kvP\" rel=\"nofollow\" target=\"_NEW\">\nhttps://lensdump.com/i/79kvP</a>\r\n\r\n\r\nVideo\r\nID                                       : 1\r\nFormat                                   : AVC\r\nFormat/Info                              : Advanced Video Codec\r\nFormat settings                          : CABAC / 4 Ref Frames\r\nFormat settings, CABAC                   : Yes\r\nFormat settings, RefFrames               : 4 frames\r\nCodec ID                                 : avc1\r\nCodec ID/Info                            : Advanced Video Coding\r\nDuration                                 : 1 h 57 min\r\nBit rate                                 : 2 057 kb/s\r\nMaximum bit rate                         : 22.1 Mb/s\r\nWidth                                    : 1 920 pixels\r\nHeight                                   : 800 pixels\r\nDisplay aspect ratio                     : 2.40:1\r\nFrame rate mode                          : Constant\r\nFrame rate                               : 24.000 FPS\r\nColor space                              : YUV\r\nChroma subsampling                       : 4:2:0\r\nBit depth                                : 8 bits\r\nScan type                                : Progressive\r\nBits/(Pixel*Frame)                       : 0.056\r\nStream size                              : 1.69 GiB (89%)\r\n\r\n\r\nAudio\r\nID                                       : 2\r\nFormat                                   : AAC\r\nFormat/Info                              : Advanced Audio Codec\r\nFormat profile                           : LC\r\nCodec ID                                 : mp4a-40-2\r\nDuration                                 : 1 h 57 min\r\nBit rate mode                            : Variable\r\nBit rate                                 : 250 kb/s\r\nMaximum bit rate                         : 325 kb/s\r\nChannel(s)                               : 6 channels\r\nChannel positions                        : Front: L C R, Side: L R, LFE\r\nSampling rate                            : 48.0 kHz\r\nFrame rate                               : 46.875 FPS (1024 SPF)\r\nCompression mode                         : Lossy\r\nStream size                              : 210 MiB (11%)\r\nLanguage                                 : English","last_updated":"2017-12-26T12:08:21.053Z","parsed":{"xt":"urn:btih:b905f198170f315491e642b6b22bdf22c6a1a106","dn":"Bright 2017 1080p WEBRip 6CH AAC x264 - EiE","tr":["udp://exodus.desync.com:6969","udp://open.demonii.com:1337","udp://tracker.coppersurfer.tk:6969","udp://tracker.leechers-paradise.org:6969","udp://zer0day.ch:1337"],"infoHash":"b905f198170f315491e642b6b22bdf22c6a1a106","infoHashBuffer":{"type":"Buffer","data":[185,5,241,152,23,15,49,84,145,230,66,182,178,43,223,34,198,161,161,6]},"name":"Bright 2017 1080p WEBRip 6CH AAC x264 - EiE","announce":["udp://exodus.desync.com:6969","udp://open.demonii.com:1337","udp://tracker.coppersurfer.tk:6969","udp://tracker.leechers-paradise.org:6969","udp://zer0day.ch:1337"],"urlList":[]}}